<svg width="3044" height="574" viewBox="0 0 3044 574" fill="none" xmlns="http://www.w3.org/2000/svg">
<path fill-rule="evenodd" clip-rule="evenodd" d="M505.241 85.7433L499.728 82.5885C487.328 70.3534 483.352 68.5733 479.14 66.6891C479.926 70.4875 481.009 75.6899 501.885 96.1878C504.31 98.5722 516.775 112.711 523.765 157.069C516.359 153.407 510.277 143.243 505.204 136.722C489.142 116.083 484.824 110.536 462.671 88.2813C458.857 73.8247 431.39 52.6493 418.804 54.4641C418.448 58.152 418.448 58.152 421.512 62.8967C409.427 60.3341 402.766 58.9229 374.869 51.0799C367.398 44.1696 356.433 35.8519 346.657 35.4673C346.199 37.215 345.699 39.7636 346.273 41.4762C349.175 47.268 351.276 51.4528 359.316 59.8067C357.016 76.5982 355.609 81.2916 343.144 102.617C322.296 90.5737 314.122 113.833 319.274 129.522C323.819 143.355 334.206 146.044 338.117 147.057C347.194 181.559 349.689 191.542 357.923 228.528L357.521 228.8C356.146 229.762 354.364 231.115 353.091 232.205L353.058 232.237L352.994 232.299L352.512 232.831L350.253 235.502L349.055 237.153C314.395 223.562 305.499 219.706 275.824 205.419C277.453 174.63 251.417 167.527 236.563 182.226C229.343 189.372 226.26 198.812 227.403 210.284C202.876 227.434 196.382 231.917 159.113 256.39C139.391 236.422 116.323 258.175 117.3 280.602C118.041 297.608 129.013 303.546 133.144 305.781C134.125 345.043 134.859 356.139 141.076 395.192L140.686 395.354C139.402 395.951 137.7 396.779 136.497 397.519L136.466 397.543L136.407 397.584L135.957 397.968L133.895 399.926L132.826 401.175C101.154 380.64 93.3766 374.856 68.807 353.547C67.9937 322.976 49.9858 307.933 39.9938 316.535C37.2166 318.927 31.2099 326.724 35.3938 347.44C22.24 362.251 19.8775 365.624 16.4324 379.339C13.8144 374.129 13.8144 374.129 11.0362 369.659C10.0485 373.657 10.0485 373.657 16.9832 391.652L25.9041 411.29L26.0415 411.563C34.9596 428.841 42.8673 440.64 48.6416 449.26C54.0442 456.321 61.2048 465.784 66.9583 472.567C85.7304 492.589 87.2639 494.227 101.751 506.401C110.539 513.148 122.489 521.851 131.683 528.038C146.369 536.695 149.015 538.259 165.151 545.825C165.964 546.237 167.044 546.792 167.862 547.194C168.922 547.699 170.335 548.379 171.402 548.874C172.37 549.309 173.66 549.897 174.632 550.322L176.719 551.289L180.968 552.997C197.099 558.915 197.729 559.146 207.787 562.047C221.113 565.573 221.113 565.573 228.255 567.063C239.313 569.183 239.313 569.183 244.964 570.02C254.615 571.316 254.615 571.316 259.452 571.783C267.955 572.51 268.284 572.537 272.69 572.759C280.517 573.079 281.156 573.107 285.373 573.139C293.061 573.116 293.862 573.116 298.12 572.958C307.058 572.537 307.058 572.537 311.585 572.162C321.324 571.237 321.509 571.219 326.619 570.534C348.832 567.147 368.065 562.964 395.291 552.599C411.079 545.815 423.549 540.453 443.119 528.32C463.013 514.85 466.596 512.421 482.875 498.318C502.144 479.73 504.158 477.787 516.049 463.225C532.985 440.362 533.999 438.993 542.742 423.649C556.166 397.431 556.693 396.409 562.637 380.223C571.713 351.66 572.07 350.544 575.236 333.591C579.443 303.837 579.786 301.407 579.999 281.334C578.786 249.776 578.763 249.173 575.944 232.05C569.64 201.965 569.519 201.391 563.993 185.237C553.217 157.678 552.796 156.602 544.71 141.571C531.129 118.725 527.903 113.297 518.599 101.702L505.241 85.7433ZM368.171 51.0081C371.323 54.2457 371.768 56.2326 371.934 56.9804C372.217 60.6947 367.44 59.3337 362.978 55.6353C357.882 51.4051 353.98 44.9308 357.099 44.4963C359.326 44.1872 364.496 47.2296 368.171 51.0081ZM345.403 122.228C346.37 126.724 344.63 129.262 343.972 130.218C338.446 136.451 329.559 129.98 329.012 121.59C328.494 113.556 334.854 109.727 340.746 114.528C343.023 116.382 344.764 119.26 345.403 122.228ZM261.725 202.799C261.146 207.962 257.962 210.644 256.916 211.526C248.121 217.55 239.859 210.172 241.317 200.987C242.932 190.821 254.25 186.705 259.665 194.315C260.642 195.682 262.202 198.602 261.725 202.799ZM151.266 279.838C150.331 285.232 147.026 287.706 145.94 288.518C136.66 294.015 128.766 284.143 131.503 274.266C134.239 264.391 145.193 262.168 149.817 270.548C150.686 272.125 152.031 275.427 151.266 279.838ZM57.7805 347.5C57.824 352.784 55.8489 354.848 55.1995 355.528C49.2165 360.076 42.0781 348.138 43.1547 338.546C43.9962 331.05 49.3405 329.259 53.7443 335.002C56.1595 338.148 57.7439 343.058 57.7805 347.5ZM22.5908 399.509C24.3808 404.127 24.7062 405.677 24.8288 406.265C24.8857 406.695 24.8899 406.778 24.8182 406.94C23.1116 406.279 14.5295 386.248 15.253 384.61C16.5106 385.049 20.7204 394.692 22.5908 399.509ZM423.924 136.244C422.322 138.493 421.489 140.778 421.049 144.134C383.673 132.779 375.85 130.003 356.951 123.296C355.975 119.101 354.938 116.53 352.674 112.714C365.449 90.96 367.227 86.3453 369.995 67.8237C373.101 69.3627 374.915 69.9392 377.466 70.1974C398.554 95.9421 404.409 103.78 424.215 135.846C424.127 135.965 424.012 136.123 423.924 136.244ZM248.218 318.691C244.067 320.584 241.164 322.758 238.202 326.187C203.015 307.965 194.155 302.897 165.269 284.459C166.262 279.331 166.352 276.084 165.637 271.093C202.339 246.603 209.087 241.928 234.467 223.915C237.795 226.913 240.215 228.251 244.428 229.421C245.455 265.838 245.923 276.61 248.973 318.353C248.746 318.455 248.445 318.585 248.218 318.691ZM76.5429 449.575C74.9682 450.301 74.2832 451.398 74.098 453.476C33.7062 419.48 29.0321 408.305 23.1143 394.155C26.4572 381.773 27.8763 378.951 42.1332 363.079C44.7567 366.827 46.5434 368.701 49.4868 370.784C57.4588 404.46 60.2291 414.705 76.8313 449.455C76.7457 449.492 76.6285 449.538 76.5429 449.575ZM384.085 229.117C380.025 226.729 377.243 225.785 372.633 225.231C363.769 190.308 361.071 180.344 350.017 144.516C352.966 142.409 354.609 140.339 356.076 136.877C376.313 144.114 384.691 147.109 422.605 158.673C424.164 163.296 425.484 166.046 428.039 169.992C413.764 194.573 409.612 200.597 384.085 229.117ZM166.413 401.688C162.559 398.556 159.882 397.047 155.396 395.474C149.985 359.169 148.717 347.491 147.576 306.249C151.747 304.739 154.503 302.9 157.743 299.463C186.698 318.006 195.488 323.263 231.254 341.91C230.764 347.097 231.06 350.327 232.462 355.195C208.273 372.607 203.751 375.823 166.413 401.688ZM88.0753 494.32C86.2021 492.594 84.3358 490.863 82.513 489.086L80.5301 487.12C42.3549 445.628 33.7303 424.686 31.7941 417.606C37.7392 425.264 46.0991 435.148 52.6926 442.255C59.3478 449.432 70.2696 456.886 77.1576 463.841C79.9182 466.626 81.1962 470.402 83.5841 473.442C80.9855 483.599 81.4475 485.746 88.0753 494.32ZM441.522 134.384C438.051 132.654 435.931 132.047 432.806 131.888C412.894 102.124 406.913 93.9746 383.048 67.3892C383.312 66.4915 383.437 65.9983 383.298 64.6055C383.122 63.3886 382.877 62.5543 382.284 61.1716C391.069 63.676 405.765 67.8671 420.202 71.4935C423.475 72.3157 427.951 73.0571 431.117 74.2352C431.552 74.3971 431.88 75.0055 432.204 75.3359C435.75 78.9201 439.305 81.8634 440.471 82.8306C445.452 104.756 445.568 110.537 441.522 134.384ZM277.222 322.208C273.209 319.283 270.371 317.978 265.544 316.822C262.211 277.068 261.392 265.977 259.448 228.085C261.614 227.111 262.938 226.329 264.896 224.869C266.784 223.365 267.839 222.321 269.423 220.4C299.477 234.911 308.461 238.979 344 253.032C343.912 258.159 344.444 261.314 346.189 266.017C319.547 289.239 312.025 295.507 277.222 322.208ZM94.518 457.511C91.0622 454.563 88.9182 453.059 85.692 451.324C71.3694 419.883 67.8262 410.443 59.3686 372.783C60.7276 372.301 61.5409 371.829 62.717 370.835C63.8788 369.752 64.5153 368.942 65.441 367.378C88.5174 387.085 95.9223 393.119 129.081 414.316C129.385 418.74 130.117 421.571 132.096 425.977C110.499 442.209 106.635 445.448 94.518 457.511ZM444.207 70.6972C448.123 74.1865 449.372 76.6542 449.78 77.4653C451.557 81.9255 447.127 80.1843 446.22 79.7896C439.254 76.7555 429.094 65.6208 432.103 64.3163C433.88 63.5478 439.536 66.5291 444.207 70.6972ZM449.321 155.714C451.4 160.468 450.474 163.486 450.131 164.622C446.836 171.959 437.551 167.064 434.204 158.446C431.061 150.352 434.792 144.257 441.203 147.005C444.424 148.386 447.609 151.804 449.321 155.714ZM382.474 253.459C382.83 258.825 379.9 262.055 378.937 263.116C370.323 270.615 359.381 263.251 359.877 253.238C360.413 242.4 372.439 237.852 379.373 245.865C381.159 247.928 382.289 250.695 382.474 253.459ZM271.765 346.82C271.408 352.312 267.886 355.218 266.729 356.176C256.786 362.806 246.066 354.029 247.714 343.891C249.501 332.864 263.141 329.607 269.497 338.685C271.121 341.008 271.95 343.974 271.765 346.82ZM163.846 422.904C164.167 427.545 161.574 429.646 160.722 430.335C152.303 435.286 141.481 424.625 143.283 415.926C145.012 407.579 156.196 408.023 161.695 416.653C162.955 418.633 163.699 420.794 163.846 422.904ZM100.203 474.335C102.116 478.069 101.4 479.448 101.165 479.901C97.5484 483.802 85.1421 470.226 85.0329 464.586C84.9658 461.111 89.3232 462.055 94.1745 466.561C96.6176 468.829 98.8713 471.735 100.203 474.335ZM513.165 161.02C512.526 164.043 512.758 167.555 513.068 169.968V170.002C495.284 164.99 477.478 160.08 459.685 155.104C457.695 150.677 456.093 148.031 453.094 144.215C457.167 120.367 457.496 114.246 452.575 90.786C455.714 92.1672 457.412 92.5887 459.555 92.5203C485.11 119.607 491.975 127.771 513.271 160.56C513.239 160.698 513.193 160.882 513.165 161.02ZM478.181 267.143C475.011 270.296 473.377 273.656 472.59 275.271C472.358 275.785 472.104 276.29 471.872 276.805C425.451 262.797 419.67 260.979 398.16 254.216C397.91 249.074 397.156 245.954 395.05 241.373C419.49 213.851 424.461 207.063 439.365 180.839C443.073 182.809 445.415 183.498 449.011 183.675C464.087 218.496 467.975 228.632 478.681 266.659C478.533 266.805 478.329 266.995 478.181 267.143ZM379.572 372.44C374.193 375.411 371.096 379.029 369.93 380.39L369.8 380.547L369.384 381C333.373 368.179 324.3 364.634 288.465 349.378C288.9 344.159 288.567 340.938 287.086 336.117C321.107 309.788 328.901 303.385 356.613 279.034C360.751 281.631 363.644 282.677 368.532 283.34C375.272 324.211 376.706 334.988 380.34 372.033C380.109 372.153 379.803 372.315 379.572 372.44ZM263.887 455.072C258.615 457.08 255.823 459.949 254.773 461.027C219.502 446.697 210.268 442.556 178.777 426.925C178.712 422.455 178.125 419.596 176.363 415.163C214.147 389.362 218.613 386.225 242.215 369.433C246.237 372.431 249.089 373.773 253.949 374.962C257.693 407.199 259.017 418.124 264.595 454.813C264.382 454.892 264.1 454.993 263.887 455.072ZM179.532 508.793C176.398 509.77 175.409 511.459 174.878 512.37C154.748 503.065 135.733 494.278 110.883 478.948C110.565 478.754 110.509 478.166 110.35 477.829C108.644 474.238 106.116 470.624 105.285 469.439C117.386 457.631 121.193 454.489 142.321 438.882C146.094 441.801 148.671 443.222 152.928 444.721C162.467 473.132 165.557 481.674 179.974 508.664C179.842 508.706 179.664 508.752 179.532 508.793ZM155.564 538.958C155.462 539.379 155.406 539.615 156.873 540.804C141.143 532.901 121.565 523.068 99.4406 504.356C93.1257 496.73 92.2009 494.584 94.6879 484.714C97.9766 487.356 99.9738 488.707 102.908 490.271C123.489 514.392 129.776 520.708 155.642 538.916C155.62 538.93 155.586 538.939 155.564 538.958ZM499.048 264.157C495.877 262.187 493.725 261.537 490.184 261.481C480.07 227.643 476.696 217.221 459.042 179.149C460.116 177.791 460.676 176.801 461.351 175.074C461.981 173.276 462.231 172.093 462.425 170.009C480.593 175.141 498.774 180.218 516.919 185.429C518.812 190.345 520.196 193.225 522.612 197.279C516.525 226.842 513.882 234.343 499.048 264.157ZM291.488 457.599C287.738 455.336 285.04 454.332 280.365 453.462C275.611 416.903 274.435 407.176 270.705 373.398C273.084 372.375 274.519 371.561 276.625 370.057C278.689 368.479 279.902 367.327 281.605 365.328C315.247 379.626 325.059 383.559 362.052 396.552C361.381 401.513 361.561 404.469 362.802 408.717C335.15 428.873 327.263 434.509 291.488 457.599ZM168.829 543.631C167.491 542.993 166.145 542.373 164.789 541.771C164.202 541.517 163.615 541.262 163.025 541.012C162.497 540.795 161.967 540.582 161.437 540.369L161.043 540.217C137.825 523.068 131.464 517.483 110.683 491.955C111.589 491.599 111.78 491.46 112.385 490.743C112.883 489.896 112.968 489.642 113.142 488.466C117.853 491.201 124.125 494.856 128.843 497.577C138.242 502.996 151.182 509.511 161.071 513.971C165.399 515.924 171.382 518.108 175.497 520.477C175.755 520.625 175.822 521.088 175.962 521.352C176.908 523.142 178.546 525.201 180.829 527.478C171.091 536.015 169.746 537.829 168.829 543.631ZM408.348 372.167C404.326 369.738 401.549 368.803 396.92 368.317C393.226 331.541 391.856 320.764 384.441 279.744C387.352 277.854 388.394 276.867 389.014 276.276L389.583 275.78L389.653 275.713L389.685 275.679C391.972 273.155 392.157 272.949 393.472 270.988L393.777 270.55C419.513 278.744 419.513 278.744 468.586 293.69C468.753 299.013 469.317 302.219 470.919 306.882C447.516 335.298 440.161 343.372 408.348 372.167ZM201.256 513.222C197.493 511.112 195.1 510.103 191.42 509.062C179.509 484.441 176.322 476.843 166.527 445.04C169.107 444.083 169.845 443.592 170.438 443.194L170.931 442.912L170.988 442.875L171.018 442.852C173.073 441.218 173.153 441.154 174.313 439.844L174.583 439.553C205.403 454.637 214.489 458.816 249.468 472.827C249.431 474.557 249.417 475.14 249.616 476.602C249.95 478.226 250.116 479.004 250.644 480.42C250.922 481.1 251.135 481.803 251.459 482.46C217.428 503.042 216.1 503.843 201.256 513.222ZM499.071 84.3607C502.713 88.037 504.741 90.8318 505.407 91.7508C507.143 94.2851 507.578 95.5126 506.708 95.3988C503.806 95.0203 489.295 79.4115 490.535 78.0012C491.114 77.3423 494.942 80.1948 499.071 84.3607ZM533.124 179.495C533.823 181.05 535.429 185.068 535.364 188.803C534.92 195.203 531.05 193.366 528.555 190.569C522.571 183.857 520.215 170.854 524.954 170.693C527.371 170.612 530.81 174.313 533.124 179.495ZM499.149 290.135C499.422 295.443 497.497 298.543 496.775 299.71C491.082 307.641 483.148 303.354 481.852 294.358C480.403 284.285 487.892 275.763 494.373 280.111C497.094 281.937 498.927 285.778 499.149 290.135ZM401.905 396.677C401.086 401.554 397.813 404.243 396.739 405.131C386.774 412.331 377.095 406.251 378.549 396.992C380.22 386.331 394.171 381.149 400.183 388.95C401.762 391 402.386 393.813 401.905 396.677ZM286.489 476.172C286.327 478.763 284.836 481.017 282.059 482.867C272.788 487.874 262.776 480.961 264.752 473.423C266.955 465.039 281.11 463.998 285.503 471.896C285.841 472.507 286.613 474.145 286.489 476.172ZM203.376 526.159C204.556 528.894 203.066 530.083 202.58 530.472C196.914 533.632 185.49 525.396 186.435 520.634C187.416 515.697 198.673 518.668 202.709 524.928C202.941 525.28 203.209 525.775 203.376 526.159ZM181.07 551.544C184.319 553.247 184.875 553.659 185.143 553.853C185.19 553.899 185.245 553.969 185.264 554.029C183.866 554.112 167.508 547.116 167.773 545.732C168.719 545.464 175.178 548.453 181.07 551.544ZM558.651 293.992C558.369 294.626 558.087 295.261 557.813 295.901C556.934 298.115 556.67 298.784 555.897 301.453C555.587 302.464 555.323 303.489 555.069 304.514L555.055 304.555C540.289 298.487 535.642 296.756 510.425 288.601C510.105 283.324 509.457 280.161 507.754 275.583C522.83 244.818 525.496 237.191 531.513 207.572C534.124 209.327 535.633 209.847 537.73 209.708C560.915 273.006 558.707 293.87 558.651 293.992ZM378.461 492.029C377.697 492.381 376.933 492.733 376.174 493.103C373.772 494.371 372.962 494.796 370.847 496.305C370.495 496.545 369.842 496.994 368.491 498.1C340.413 490.405 332.239 488.017 301.518 477.93C301.782 475.265 301.782 475.265 301.782 474.136C301.638 472.549 301.569 471.753 301.175 470.24C300.967 469.537 300.824 468.81 300.564 468.116C335.187 446.183 343.06 440.77 371.735 420.179C375.568 422.409 378.192 423.274 382.543 423.751C382.599 457.413 382.145 465.691 378.785 491.881C378.688 491.928 378.558 491.983 378.461 492.029ZM236.124 566.702C235.989 566.767 235.777 566.772 235.628 566.809C235.545 566.846 235.434 566.897 235.346 566.934C235.318 567.017 235.281 567.124 235.258 567.207L235.443 567.471C198.016 558.716 186.513 552.83 186.407 552.775C185.569 552.326 184.727 551.872 183.889 551.424C182.88 550.887 181.875 550.345 180.866 549.804L180.565 549.642C181.079 544.617 181.866 543.215 191.577 535.034C195.025 536.746 197.127 537.57 200.233 538.421C215.156 554.403 219.53 558.267 236.128 566.698L236.124 566.702ZM560.692 179.089C561.577 182.329 562.488 185.562 563.396 188.794C556.786 184.544 554.384 183.364 539.039 178.059C536.97 173.269 535.452 170.451 532.795 166.462C528.704 139.904 526.949 133.09 514.082 106.976C515.989 108.191 516.822 108.482 517.502 108.174C550.574 150.503 558.725 171.868 560.692 179.089ZM488.855 406.038C485.185 408.972 483.014 411.406 480.287 414.876C459.472 408.717 438.625 402.674 417.795 396.562C418.726 391.606 418.642 388.566 417.458 384.059C446.808 357.564 454.07 350.332 479.612 318.825C482.893 320.931 485.124 321.639 488.79 321.731C492.28 359.197 492.683 369.669 489.448 405.571C489.267 405.71 489.031 405.895 488.855 406.038ZM280.365 544.645C277.31 545.556 275.731 546.477 274.047 547.75C249.232 540.587 242.039 538.347 215.271 528.76C214.498 526.145 213.568 524.424 211.453 521.666C224.709 513.569 224.709 513.569 260.855 492.251C264.525 494.297 267.043 495.194 271.218 495.935C275.139 516.984 276.463 523.961 280.865 544.497C280.717 544.543 280.517 544.598 280.365 544.645ZM187.527 555.482C187.37 555.421 187.161 555.343 187.009 555.283C188.235 555.736 189.471 556.18 190.702 556.615C191.207 556.791 191.711 556.967 192.216 557.138C192.642 557.286 193.072 557.434 193.503 557.578L193.822 557.684L196.039 558.438L187.527 555.482ZM568.2 289.225L568.191 289.264C567.936 288.877 567.659 288.506 567.344 288.167C566.923 287.818 566.733 287.659 566.423 287.513C566.14 287.387 565.747 287.259 565.446 287.187C565.122 287.182 564.687 287.214 564.368 287.28L564.358 287.248C562.475 274.04 559.484 256.472 556.36 243.501C553.43 231.316 546.492 215.959 542.891 203.953C542.516 202.711 543.372 201.675 543.474 200.513C543.659 198.35 543.525 196.472 543.372 194.734L543.289 193.863V193.826C553.782 197.587 562.84 200.836 568.071 205.116C568.446 205.424 568.385 206.207 568.52 206.673C569.506 210.089 570.501 213.504 571.5 216.915C573.866 240.945 575.291 255.45 568.2 289.225ZM401.937 490.919C401.359 490.59 400.757 490.303 400.146 490.04C399.494 489.781 398.827 489.568 398.147 489.383C397.383 489.216 396.614 489.059 395.837 488.957C394.994 488.878 394.143 488.827 393.296 488.79L393.245 488.786C397.461 462.531 398.327 454.415 398.776 420.345C403.405 417.958 406.413 415.649 409.894 411.827C430.663 417.786 451.446 423.672 472.201 429.674C470.762 433.991 470.257 436.54 470.137 440.163C442.934 463.156 435.417 469 401.937 490.919ZM248.135 568.433C247.607 568.303 247.075 568.174 246.548 568.054C246.029 567.933 245.511 567.818 244.992 567.707C244.469 567.596 243.946 567.489 243.418 567.387C242.909 567.295 242.396 567.207 241.886 567.114L241.859 567.11C227.959 558.989 224.001 555.917 209.828 538.893C212.092 538.292 213.36 537.5 214.503 535.969C237.619 543.992 244.742 546.385 270.825 553.589C270.918 555.315 271.334 556.365 272.533 557.915C265.59 560.881 258.582 563.69 251.709 566.809C250.635 567.295 249.306 568.322 248.135 568.433ZM518.599 101.702C535.605 125.338 536.267 126.26 544.71 141.571C549.324 150.903 555.388 163.402 559.438 172.993C559.369 172.828 559.276 172.609 559.202 172.444C559.16 172.438 559.1 172.43 559.059 172.425C553.726 160.984 546.376 145.787 539.724 135.061C531.921 122.475 521.96 111.456 513.67 99.2265C512.559 97.6199 511.767 96.539 510.406 94.7774C512.1 95.6436 514.327 96.9105 515.78 98.1372L518.599 101.702ZM507.537 402.521C505.592 400.842 504.014 400.337 501.038 400.448C504.301 366.207 504.602 356.042 500.709 316.345C502.288 314.776 503.218 313.638 504.542 311.648C505.463 310.191 506 309.187 506.842 307.368C507.055 306.846 507.296 306.337 507.513 305.818C531.532 313.749 536.535 315.508 552.296 322.161C552.231 323.24 552.162 324.313 552.111 325.391C552.092 326.442 552.06 327.487 552.055 328.538C552.032 329.625 552.051 330.712 552.092 331.8C552.129 332.846 552.19 333.891 552.268 334.932C536.869 364.657 532.157 372.362 507.537 402.521ZM299.902 545.732C297.338 544.603 295.376 544.085 292.126 543.687C290.335 529.357 289.863 525.683 285.604 494.773C287.65 494.061 288.9 493.501 290.733 492.455C292.566 491.349 293.594 490.581 295.126 489.179C321.875 497.841 330.105 500.441 360.066 508.53C359.807 509.168 359.548 509.811 359.321 510.459C359.159 511.089 358.988 511.713 358.867 512.347C358.784 512.703 358.65 513.296 358.627 514.314C358.608 514.948 358.631 515.582 358.692 516.211C334.937 528.885 327.582 532.734 299.902 545.732ZM228.255 567.063C215.744 564.25 214.994 564.083 207.787 562.047L206.546 561.691C197.604 558.795 197.604 558.795 196.979 558.411C196.534 558.156 196.076 557.911 195.618 557.67C213.739 563.343 219.854 565.152 239.919 569.104C240.364 569.201 240.808 569.298 241.252 569.391C241.738 569.488 242.229 569.576 242.715 569.664C243.247 569.756 243.775 569.84 244.307 569.923C239.479 569.132 233.041 568.063 228.255 567.063ZM571.436 210.347C571.565 210.878 571.704 211.408 571.797 211.947C571.024 210.779 565.159 189.624 564.923 188.298C565.127 188.567 565.127 188.567 565.571 189.924L571.436 210.347ZM566.839 315.165C566.548 320.667 565.27 324.512 564.849 325.775C561.989 333.257 560.114 329.935 559.767 329.195C556.818 322.888 560.595 303.866 564.576 304.963C566.205 305.411 567.136 309.608 566.839 315.165ZM498.668 424.704C497.08 429.308 494.09 432.436 493.109 433.463C486.703 439.465 482.403 437.706 482.551 432.371C482.796 423.543 493.775 412.544 498.21 416.68C499.737 418.101 499.908 421.099 498.668 424.704ZM391.602 507.068C389.963 510.357 386.482 512.444 385.339 513.129C376.299 517.9 371.059 514.267 372.559 509.46C374.901 501.95 388.584 496.92 391.824 502.376C392.824 504.065 392.115 506.04 391.602 507.068ZM295.473 554.949C295.084 556.759 292.95 557.707 292.251 558.022C285.813 560.372 279.333 556.907 281.235 553.381C283.531 549.128 294.14 549.388 295.427 553.723C295.533 554.084 295.552 554.579 295.473 554.949ZM253.819 570.987C254.365 571.112 254.925 571.177 255.462 571.367L255.365 571.357L250.908 570.83C244.96 570.062 244.085 569.511 243.96 569.363C244.534 568.836 250.343 570.182 253.819 570.987ZM579.999 281.334C579.48 293.643 578.448 310.052 577.069 322.296C576.412 317.909 576.402 317.826 571.144 313.277C571.223 312.204 571.283 311.126 571.325 310.048C571.366 308.983 571.389 307.919 571.389 306.85C571.389 305.74 571.376 304.626 571.325 303.515C571.292 302.449 571.218 301.386 571.121 300.324C577.347 267.23 577.74 259.026 574.639 227.177C574.847 227.792 575.06 228.405 575.342 228.992C575.352 228.951 575.361 228.897 575.37 228.856L576.689 236.703C578.166 250.048 580.054 267.908 579.999 281.334ZM537.734 424.801C534.887 428.461 532.37 432.126 531.157 433.889C525.218 429.896 522.95 428.748 507.768 423.293C509.444 418.892 510.082 416.246 510.397 412.4C534.156 383.541 539.164 376.068 555.027 345.769C555.282 346.139 555.559 346.496 555.865 346.824C556.281 347.217 556.346 347.278 556.749 347.495C557.244 347.703 557.374 347.764 557.712 347.801C558.059 347.791 558.411 347.768 558.758 347.708L558.781 347.699C553.796 382.259 551.62 391.888 537.817 424.695C537.794 424.727 537.757 424.769 537.734 424.801ZM448.65 510.024C447.544 510.677 446.456 511.357 445.378 512.051C444.35 512.694 442.804 513.671 439.564 516.04C428.918 513.018 425.905 512.222 403.363 506.767C403.761 506.133 404.122 505.48 404.455 504.809C404.789 504.152 404.988 503.708 405.307 502.838C405.465 502.417 405.627 501.982 405.937 500.714C406.039 500.043 406.126 499.368 406.163 498.688C438.111 478.027 445.646 472.489 473.335 449.302C475.224 450.797 476.728 451.241 479.519 451.144C461.421 500.779 448.771 509.955 448.65 510.024ZM349.272 559.961C346.504 560.766 344.921 561.298 342.232 562.339L341.616 562.575C327.309 560.285 322.551 559.364 305.249 555.551C305.957 553.797 306.008 552.682 305.452 550.956C331.6 539.319 338.714 535.807 363.408 523.073C363.936 523.36 364.482 523.61 365.042 523.836C365.621 524.04 366.209 524.23 366.801 524.382C367.463 524.507 368.12 524.637 368.791 524.716C369.513 524.804 370.245 524.845 370.976 524.854L370.985 524.873C363.584 543.423 361.14 548.083 349.717 559.831C349.582 559.868 349.406 559.924 349.272 559.961ZM285.373 573.139C277.879 573 276.916 572.982 272.69 572.759L270.709 572.653C267.404 572.375 262.993 572.014 259.693 571.635C259.429 571.57 259.161 571.506 258.897 571.436C258.596 571.357 258.291 571.274 257.99 571.191C257.619 571.089 257.249 570.983 256.883 570.876C256.467 570.761 256.055 570.636 255.643 570.515C263.854 567.674 268.696 565.86 270.848 565.032C273.223 564.12 276.292 562.589 278.763 561.992C278.995 561.936 279.291 562.172 279.513 562.256C280.98 562.765 282.86 563.149 285.105 563.389C286.507 568.59 287.613 572.695 288.238 573.144L285.373 573.139ZM461.014 506.832C460.597 505.758 460.116 505.578 458.296 505.804C464.374 497.554 472.034 486.208 477.172 477.343C482.236 468.607 485.842 455.396 490.438 446.405C491.419 444.48 493.544 443.879 494.988 442.491C496.682 440.802 497.733 439.631 499.321 437.679C513.933 442.852 516.484 443.99 522.057 447.807C519.571 451.81 518.233 454.031 516.322 457.321C495.007 479.975 488.98 485.699 461.014 506.832ZM303.564 572.713L298.12 572.958L293.043 573.097C293.969 571.908 294.39 571.367 293.908 562.862C295.223 562.552 296.019 562.316 297.185 561.899C298.38 561.446 299.106 561.113 300.162 560.53C315.126 563.57 320.037 564.528 333.437 566.318C331.748 567.216 330.859 567.734 329.781 568.452C316.098 571.348 312.423 572.125 303.564 572.713ZM562.637 380.223L559.253 389.116C554.967 398.602 548.792 411.045 543.756 420.156C543.844 419.813 543.918 419.35 543.955 418.999C543.867 418.888 543.742 418.74 543.65 418.629C543.511 418.684 543.321 418.758 543.178 418.809C547.903 407.454 553.944 392.147 557.253 380.302C558.947 374.24 560.605 366.004 561.831 359.836C563.192 352.978 562.488 345.769 565.418 339.185C565.784 338.292 566.145 337.389 566.478 336.482C566.802 335.566 567.112 334.645 567.404 333.72C567.719 332.725 568.001 331.716 568.27 330.708C573.718 335.446 573.718 335.446 574.06 339.661C571.033 351.937 566.839 368.304 562.637 380.223ZM362.385 558.656C361.737 558.267 361.307 558.008 358.826 558.101C363.464 553.728 369.324 547.504 373.115 542.382C377.179 536.89 380.127 528.043 383.7 522.222C384.27 521.301 385.334 521.546 386.14 521.18C387.047 520.736 387.95 520.287 388.834 519.801C389.676 519.339 390.509 518.853 391.319 518.335C392.125 517.835 392.902 517.298 393.671 516.738L393.708 516.72C413.509 521.347 417.629 522.309 428.34 525.252C425.766 527.64 424.308 529.121 422.341 531.346C398.29 544.071 390.824 547.847 362.385 558.656ZM531.458 441.121C529.703 443.902 527.778 446.697 525.727 449.432C524.223 451.375 522.77 453.17 522.279 453.147C521.682 451.921 534.05 433.278 535.383 433.394C535.79 434.185 532.184 439.969 531.458 441.121ZM444.989 521.097C441.828 523.841 438.601 525.831 437.541 526.488C431.649 529.912 431.543 528.695 431.649 528.241C432.464 524.799 447.549 514.133 448.822 516.104C449.238 516.752 447.738 518.71 444.989 521.097ZM349.369 564.731C347.023 565.731 344.245 566.457 343.329 566.693C340.292 567.457 337.265 567.938 337.793 567.198C339.223 565.189 351.674 561.478 351.966 562.968C352.036 563.352 351.068 564.009 349.369 564.731ZM542.742 423.649L533.226 439.409C535.272 435.851 537.563 432.441 539.586 428.864L546.806 416.162L542.742 423.649ZM482.875 498.318C462.337 515.512 462.337 515.512 451.113 523.105C451.395 522.754 451.775 522.286 452.057 521.935C451.756 521.12 450.965 520.19 450.28 519.658C453.455 516.997 455.191 515.369 457.417 512.953C484.347 493.177 490.503 487.814 512.29 465.122C512.096 465.733 512.096 465.733 512.087 466.228C512.249 466.274 512.494 466.302 512.647 466.228C505.134 475.228 494.618 486.81 486.365 495.134L482.875 498.318ZM358.224 564.449C357.155 564.37 355.734 564.245 354.669 564.139C357.414 563.079 358.835 562.408 360.52 561.391C386.329 552.321 393.462 549.267 419.258 536.223C419.42 536.811 419.517 537.163 421.221 536.904C403.187 548.814 402.109 549.526 384.543 556.606C362.644 563.783 358.775 564.398 358.224 564.449ZM312.928 572.051C315.913 571.672 319.894 571.177 322.879 570.793C324.643 570.566 326.957 569.992 328.721 569.761C329.406 569.673 330.091 569.826 330.776 569.761L326.531 570.543C322.458 571.038 317.015 571.649 312.928 572.051ZM516.049 463.225L506.328 474.747L517.562 461.083C519.928 458.168 521.113 456.701 524.07 452.689L523.839 453.045L516.049 463.225ZM333.748 569.479L337.131 568.775C339.251 568.378 341.413 567.952 344.565 567.188L346.245 567.174C342.496 567.882 337.506 568.854 333.748 569.479ZM395.291 552.599L392.675 553.621C397.253 551.562 403.53 549.17 407.932 546.759C416.342 542.155 424.146 536.552 432.487 531.832L433.339 531.356C434.945 530.421 436.532 529.449 438.106 528.454C438.467 528.806 438.949 529.273 439.31 529.625C439.194 530.148 438.879 530.851 438.467 531.184C419.332 541.98 414.19 544.881 395.291 552.599Z" fill="url(#paint0_linear_8215_812)"/>
<path fill-rule="evenodd" clip-rule="evenodd" d="M224.812 111.231C224.812 122.047 216.045 130.814 205.227 130.814C194.413 130.814 185.646 122.047 185.646 111.231C185.646 100.416 194.413 91.6479 205.227 91.6479C216.045 91.6479 224.812 100.416 224.812 111.231Z" fill="#88C053"/>
<path fill-rule="evenodd" clip-rule="evenodd" d="M93.998 215.412C93.998 230.553 81.7234 242.828 66.5819 242.828C51.4404 242.828 39.1658 230.553 39.1658 215.412C39.1658 200.271 51.4404 187.996 66.5819 187.996C81.7234 187.996 93.998 200.271 93.998 215.412Z" fill="#ACCD3A"/>
<path fill-rule="evenodd" clip-rule="evenodd" d="M132.381 48.174C132.381 61.8016 121.334 72.8486 107.706 72.8486C94.0787 72.8486 83.0317 61.8016 83.0317 48.174C83.0317 34.547 94.0787 23.4995 107.706 23.4995C121.334 23.4995 132.381 34.547 132.381 48.174Z" fill="#94C447"/>
<path fill-rule="evenodd" clip-rule="evenodd" d="M296.877 47.7824C296.877 53.8388 291.967 58.7488 285.913 58.7488C279.855 58.7488 274.945 53.8388 274.945 47.7824C274.945 41.7259 279.855 36.8159 285.913 36.8159C291.967 36.8159 296.877 41.7259 296.877 47.7824Z" fill="#5AB88C"/>
<path fill-rule="evenodd" clip-rule="evenodd" d="M16.4497 109.273C16.4497 113.816 12.7674 117.498 8.2246 117.498C3.68227 117.498 0 113.816 0 109.273C0 104.731 3.68227 101.048 8.2246 101.048C12.7674 101.048 16.4497 104.731 16.4497 109.273Z" fill="#C7D73A"/>
<path fill-rule="evenodd" clip-rule="evenodd" d="M14.8829 282.778C14.8829 286.671 11.7266 289.828 7.83283 289.828C3.9395 289.828 0.783203 286.671 0.783203 282.778C0.783203 278.884 3.9395 275.728 7.83283 275.728C11.7266 275.728 14.8829 278.884 14.8829 282.778Z" fill="#C7D73A"/>
<path fill-rule="evenodd" clip-rule="evenodd" d="M164.497 170.763C164.497 176.82 159.587 181.73 153.53 181.73C147.474 181.73 142.564 176.82 142.564 170.763C142.564 164.707 147.474 159.797 153.53 159.797C159.587 159.797 164.497 164.707 164.497 170.763Z" fill="#C7D73A"/>
<path fill-rule="evenodd" clip-rule="evenodd" d="M407.325 7.04989C407.325 10.9432 404.168 14.0997 400.278 14.0997C396.382 14.0997 393.225 10.9432 393.225 7.04989C393.225 3.15653 396.382 0 400.278 0C404.168 0 407.325 3.15653 407.325 7.04989Z" fill="#46B6A7"/>
<path d="M1711.61 172.533H1750.28V102.834H1801.54V172.533H1847.86V210.755H1801.54V334.865C1801.54 340.261 1801.69 344.908 1801.99 348.805C1802.59 352.702 1803.64 356 1805.14 358.698C1806.94 361.396 1809.49 363.494 1812.79 364.993C1816.08 366.192 1820.58 366.792 1826.28 366.792C1829.87 366.792 1833.47 366.792 1837.07 366.792C1840.67 366.492 1844.26 365.892 1847.86 364.993V404.564C1842.17 405.164 1836.62 405.763 1831.22 406.363C1825.83 406.962 1820.28 407.262 1814.59 407.262C1801.1 407.262 1790.15 406.063 1781.76 403.665C1773.67 400.967 1767.22 397.22 1762.42 392.423C1757.93 387.327 1754.78 381.031 1752.98 373.537C1751.48 366.042 1750.58 357.498 1750.28 347.905V210.755H1711.61V172.533Z" fill="white"/>
<path d="M1566.91 172.533H1615.02V217.5H1615.92C1617.42 211.205 1620.27 205.06 1624.46 199.064C1628.96 193.068 1634.21 187.672 1640.2 182.876C1646.5 177.779 1653.39 173.732 1660.89 170.735C1668.38 167.737 1676.03 166.238 1683.82 166.238C1689.82 166.238 1693.86 166.388 1695.96 166.687C1698.36 166.987 1700.76 167.287 1703.16 167.587V217.051C1699.56 216.451 1695.81 216.002 1691.91 215.702C1688.32 215.102 1684.72 214.802 1681.12 214.802C1672.43 214.802 1664.18 216.601 1656.39 220.198C1648.9 223.496 1642.3 228.592 1636.6 235.487C1630.91 242.083 1626.41 250.327 1623.11 260.219C1619.82 270.112 1618.17 281.504 1618.17 294.394V405.014H1566.91V172.533Z" fill="white"/>
<path d="M1511.75 353.302C1511.75 359.597 1512.5 364.094 1513.99 366.792C1515.79 369.49 1519.09 370.839 1523.89 370.839C1525.39 370.839 1527.19 370.839 1529.28 370.839C1531.38 370.839 1533.78 370.539 1536.48 369.939V405.464C1534.68 406.063 1532.28 406.663 1529.28 407.262C1526.59 408.162 1523.74 408.911 1520.74 409.511C1517.74 410.11 1514.74 410.56 1511.75 410.86C1508.75 411.159 1506.2 411.309 1504.1 411.309C1493.61 411.309 1484.92 409.211 1478.02 405.014C1471.13 400.817 1466.63 393.472 1464.53 382.98C1454.34 392.873 1441.75 400.067 1426.76 404.564C1412.07 409.061 1397.83 411.309 1384.04 411.309C1373.55 411.309 1363.5 409.81 1353.91 406.813C1344.32 404.115 1335.77 400.067 1328.28 394.671C1321.09 388.976 1315.24 381.931 1310.74 373.537C1306.55 364.843 1304.45 354.8 1304.45 343.409C1304.45 329.019 1307 317.328 1312.09 308.334C1317.49 299.341 1324.38 292.296 1332.78 287.2C1341.47 282.103 1351.06 278.506 1361.56 276.408C1372.35 274.009 1383.14 272.211 1393.93 271.011C1403.23 269.213 1412.07 268.014 1420.46 267.414C1428.86 266.515 1436.2 265.166 1442.5 263.367C1449.09 261.568 1454.19 258.87 1457.79 255.273C1461.68 251.376 1463.63 245.68 1463.63 238.185C1463.63 231.59 1461.98 226.194 1458.69 221.997C1455.69 217.8 1451.79 214.653 1446.99 212.554C1442.5 210.156 1437.4 208.657 1431.7 208.057C1426.01 207.158 1420.61 206.708 1415.52 206.708C1401.13 206.708 1389.29 209.706 1379.99 215.702C1370.7 221.697 1365.45 230.991 1364.25 243.581H1312.99C1313.89 228.592 1317.49 216.151 1323.78 206.259C1330.08 196.366 1338.02 188.422 1347.62 182.426C1357.51 176.43 1368.6 172.233 1380.89 169.835C1393.18 167.437 1405.77 166.238 1418.66 166.238C1430.06 166.238 1441.3 167.437 1452.39 169.835C1463.48 172.233 1473.37 176.131 1482.07 181.527C1491.06 186.923 1498.26 193.968 1503.65 202.661C1509.05 211.055 1511.75 221.398 1511.75 233.689V353.302ZM1460.48 288.549C1452.69 293.645 1443.1 296.793 1431.7 297.992C1420.31 298.891 1408.92 300.39 1397.53 302.489C1392.13 303.388 1386.89 304.737 1381.79 306.536C1376.69 308.035 1372.2 310.283 1368.3 313.281C1364.4 315.979 1361.26 319.726 1358.86 324.523C1356.76 329.019 1355.71 334.565 1355.71 341.16C1355.71 346.856 1357.36 351.653 1360.66 355.55C1363.95 359.447 1367.85 362.595 1372.35 364.993C1377.14 367.092 1382.24 368.59 1387.64 369.49C1393.33 370.389 1398.43 370.839 1402.93 370.839C1408.62 370.839 1414.77 370.089 1421.36 368.59C1427.96 367.091 1434.1 364.543 1439.8 360.946C1445.79 357.349 1450.74 352.852 1454.64 347.456C1458.54 341.76 1460.48 334.865 1460.48 326.771V288.549Z" fill="white"/>
<path d="M925.771 172.533H974.335V204.91H975.684C979.581 199.214 983.778 193.968 988.275 189.171C992.772 184.375 997.718 180.328 1003.11 177.03C1008.81 173.732 1015.26 171.184 1022.45 169.385C1029.64 167.287 1037.89 166.238 1047.18 166.238C1061.27 166.238 1074.31 169.385 1086.3 175.681C1098.59 181.976 1107.29 191.719 1112.38 204.91C1121.08 192.918 1131.12 183.475 1142.51 176.58C1153.9 169.685 1168.14 166.238 1185.23 166.238C1209.81 166.238 1228.85 172.233 1242.34 184.225C1256.13 196.216 1263.02 216.301 1263.02 244.481V405.014H1211.76V269.213C1211.76 259.92 1211.46 251.526 1210.86 244.031C1210.26 236.237 1208.46 229.642 1205.47 224.246C1202.77 218.55 1198.57 214.203 1192.88 211.205C1187.18 208.207 1179.39 206.708 1169.49 206.708C1152.11 206.708 1139.51 212.104 1131.72 222.897C1123.93 233.689 1120.03 248.978 1120.03 268.763V405.014H1068.77V255.723C1068.77 239.534 1065.77 227.393 1059.77 219.299C1054.08 210.905 1043.43 206.708 1027.85 206.708C1021.25 206.708 1014.81 208.057 1008.51 210.755C1002.51 213.453 997.119 217.351 992.322 222.447C987.825 227.543 984.078 233.839 981.08 241.333C978.382 248.828 977.033 257.371 977.033 266.964V405.014H925.771V172.533Z" fill="white"/>
<path d="M731.263 330.368C732.762 345.357 738.457 355.85 748.35 361.845C758.243 367.841 770.084 370.839 783.874 370.839C788.671 370.839 794.067 370.539 800.063 369.939C806.358 369.04 812.204 367.541 817.6 365.443C822.996 363.344 827.343 360.346 830.64 356.449C834.238 352.252 835.886 346.856 835.587 340.261C835.287 333.666 832.889 328.27 828.392 324.073C823.895 319.876 818.049 316.578 810.855 314.18C803.96 311.482 796.016 309.234 787.022 307.435C778.029 305.636 768.885 303.688 759.592 301.589C749.999 299.491 740.706 296.943 731.712 293.945C723.019 290.947 715.074 286.9 707.88 281.804C700.985 276.707 695.439 270.262 691.242 262.468C687.045 254.374 684.946 244.481 684.946 232.789C684.946 220.198 687.944 209.706 693.94 201.312C700.235 192.619 708.03 185.724 717.323 180.627C726.916 175.231 737.408 171.484 748.8 169.385C760.491 167.287 771.583 166.238 782.076 166.238C794.067 166.238 805.459 167.587 816.251 170.285C827.343 172.683 837.235 176.73 845.929 182.426C854.923 188.122 862.267 195.616 867.963 204.91C873.959 213.903 877.706 224.845 879.205 237.736H825.694C823.296 225.445 817.6 217.201 808.606 213.004C799.913 208.807 789.87 206.708 778.478 206.708C774.881 206.708 770.534 207.008 765.438 207.608C760.641 208.207 755.995 209.406 751.498 211.205C747.301 212.704 743.704 215.102 740.706 218.4C737.708 221.398 736.209 225.445 736.209 230.541C736.209 236.836 738.308 241.933 742.504 245.83C747.001 249.727 752.697 253.025 759.592 255.723C766.787 258.121 774.881 260.219 783.874 262.018C792.868 263.817 802.161 265.765 811.754 267.864C821.047 269.962 830.191 272.51 839.184 275.508C848.178 278.506 856.122 282.553 863.017 287.649C870.211 292.746 875.907 299.191 880.104 306.985C884.601 314.78 886.849 324.373 886.849 335.764C886.849 349.554 883.702 361.246 877.406 370.839C871.111 380.432 862.867 388.226 852.674 394.222C842.781 400.217 831.69 404.564 819.398 407.262C807.107 409.96 794.966 411.309 782.975 411.309C768.286 411.309 754.646 409.66 742.055 406.363C729.764 403.065 718.972 398.119 709.678 391.524C700.685 384.629 693.49 376.235 688.094 366.342C682.998 356.149 680.3 344.158 680 330.368H731.263Z" fill="white"/>
<path d="M3043.92 84.6689V405.735H3026.83V84.6689H3043.92Z" fill="white"/>
<path d="M2951.29 359.868H2950.39C2947.69 366.763 2943.8 373.358 2938.7 379.654C2933.6 385.649 2927.31 391.045 2919.81 395.842C2912.62 400.638 2904.37 404.386 2895.08 407.084C2885.79 409.782 2875.6 411.131 2864.5 411.131C2839.92 411.131 2820.89 405.885 2807.39 395.392C2793.9 384.6 2787.16 368.112 2787.16 345.928C2787.16 332.438 2789.86 321.496 2795.25 313.102C2800.65 304.409 2807.39 297.663 2815.49 292.867C2823.88 287.771 2833.03 284.173 2842.92 282.075C2853.11 279.976 2862.85 278.477 2872.15 277.578L2898.68 275.33C2910.97 274.43 2920.56 273.081 2927.46 271.283C2934.65 269.184 2940.05 266.486 2943.65 263.189C2947.24 259.591 2949.49 255.094 2950.39 249.698C2951.29 244.302 2951.74 237.557 2951.74 229.463C2951.74 223.168 2950.54 217.322 2948.14 211.926C2945.74 206.53 2942 201.733 2936.9 197.536C2931.8 193.339 2925.21 190.042 2917.11 187.644C2909.02 185.245 2899.13 184.046 2887.44 184.046C2866.75 184.046 2849.96 189.143 2837.07 199.335C2824.48 209.528 2817.59 224.966 2816.39 245.651H2799.3C2800.5 220.17 2808.59 201.134 2823.58 188.543C2838.87 175.652 2860.46 169.207 2888.34 169.207C2916.22 169.207 2936.45 174.753 2949.04 185.845C2961.93 196.637 2968.38 210.877 2968.38 228.564V363.016C2968.38 366.313 2968.38 369.611 2968.38 372.909C2968.68 376.206 2969.28 379.204 2970.18 381.902C2971.08 384.6 2972.57 386.849 2974.67 388.647C2976.77 390.146 2979.77 390.896 2983.67 390.896C2986.66 390.896 2990.86 390.446 2996.26 389.547V403.936C2991.76 405.135 2987.11 405.735 2982.32 405.735C2975.42 405.735 2969.88 404.835 2965.68 403.037C2961.78 401.238 2958.78 398.84 2956.69 395.842C2954.59 392.844 2953.09 389.397 2952.19 385.499C2951.59 381.303 2951.29 376.806 2951.29 372.009V359.868ZM2951.29 274.43C2947.09 279.527 2940.65 282.974 2931.95 284.773C2923.56 286.572 2914.12 287.921 2903.62 288.82L2874.85 291.518C2866.45 292.417 2858.06 293.766 2849.66 295.565C2841.27 297.064 2833.63 299.762 2826.73 303.659C2820.14 307.556 2814.74 312.952 2810.54 319.847C2806.35 326.443 2804.25 335.136 2804.25 345.928C2804.25 363.016 2809.64 375.757 2820.44 384.15C2831.23 392.245 2846.07 396.292 2864.95 396.292C2884.44 396.292 2899.88 392.844 2911.27 385.949C2922.66 378.754 2931.35 370.66 2937.35 361.667C2943.35 352.374 2947.09 343.53 2948.59 335.136C2950.39 326.442 2951.29 320.597 2951.29 317.599V274.43Z" fill="white"/>
<path d="M2726.47 130.985V84.6689H2743.56V130.985H2726.47ZM2726.47 405.735V174.603H2743.56V405.735H2726.47Z" fill="white"/>
<path d="M2691.04 189.443H2640.68V350.875C2640.68 360.168 2641.72 367.513 2643.82 372.909C2645.92 378.305 2649.07 382.502 2653.27 385.5C2657.76 388.198 2663.01 389.847 2669 390.446C2675.3 391.046 2682.5 391.196 2690.59 390.896V405.735C2681.9 406.335 2673.35 406.335 2664.96 405.735C2656.86 404.836 2649.67 402.587 2643.37 398.99C2637.08 395.093 2631.98 389.397 2628.08 381.902C2624.49 374.408 2622.99 364.065 2623.59 350.875V189.443H2580.87V174.603H2623.59V102.656H2640.68V174.603H2691.04V189.443Z" fill="white"/>
<path d="M2534.55 359.868H2533.65C2530.96 366.763 2527.06 373.358 2521.96 379.654C2516.87 385.649 2510.57 391.045 2503.08 395.842C2495.88 400.638 2487.64 404.386 2478.34 407.084C2469.05 409.782 2458.86 411.131 2447.77 411.131C2423.18 411.131 2404.15 405.885 2390.66 395.392C2377.17 384.6 2370.42 368.112 2370.42 345.928C2370.42 332.438 2373.12 321.496 2378.52 313.102C2383.91 304.409 2390.66 297.663 2398.75 292.867C2407.15 287.771 2416.29 284.173 2426.18 282.075C2436.37 279.976 2446.12 278.477 2455.41 277.578L2481.94 275.33C2494.23 274.43 2503.83 273.081 2510.72 271.283C2517.91 269.184 2523.31 266.486 2526.91 263.189C2530.51 259.591 2532.75 255.094 2533.65 249.698C2534.55 244.302 2535 237.557 2535 229.463C2535 223.168 2533.8 217.322 2531.41 211.926C2529.01 206.53 2525.26 201.733 2520.16 197.536C2515.07 193.339 2508.47 190.042 2500.38 187.644C2492.28 185.245 2482.39 184.046 2470.7 184.046C2450.01 184.046 2433.23 189.143 2420.34 199.335C2407.75 209.528 2400.85 224.966 2399.65 245.651H2382.56C2383.76 220.17 2391.86 201.134 2406.85 188.543C2422.13 175.652 2443.72 169.207 2471.6 169.207C2499.48 169.207 2519.71 174.753 2532.3 185.845C2545.2 196.637 2551.64 210.877 2551.64 228.564V363.016C2551.64 366.313 2551.64 369.611 2551.64 372.909C2551.94 376.206 2552.54 379.204 2553.44 381.902C2554.34 384.6 2555.84 386.849 2557.94 388.647C2560.03 390.146 2563.03 390.896 2566.93 390.896C2569.93 390.896 2574.12 390.446 2579.52 389.547V403.936C2575.02 405.135 2570.38 405.735 2565.58 405.735C2558.69 405.735 2553.14 404.835 2548.94 403.037C2545.05 401.238 2542.05 398.84 2539.95 395.842C2537.85 392.844 2536.35 389.397 2535.45 385.499C2534.85 381.303 2534.55 376.806 2534.55 372.009V359.868ZM2534.55 274.43C2530.36 279.527 2523.91 282.974 2515.22 284.773C2506.82 286.572 2497.38 287.921 2486.89 288.82L2458.11 291.518C2449.71 292.417 2441.32 293.766 2432.93 295.565C2424.53 297.064 2416.89 299.762 2409.99 303.659C2403.4 307.556 2398 312.952 2393.81 319.847C2389.61 326.443 2387.51 335.136 2387.51 345.928C2387.51 363.016 2392.91 375.757 2403.7 384.15C2414.49 392.245 2429.33 396.292 2448.22 396.292C2467.7 396.292 2483.14 392.844 2494.53 385.949C2505.92 378.754 2514.62 370.66 2520.61 361.667C2526.61 352.374 2530.36 343.53 2531.85 335.136C2533.65 326.442 2534.55 320.597 2534.55 317.599V274.43Z" fill="white"/>
<path d="M2152.48 227.664H2153.38C2155.18 221.969 2158.18 215.673 2162.37 208.778C2166.57 201.883 2172.12 195.588 2179.01 189.892C2185.91 183.896 2194.15 178.95 2203.74 175.053C2213.64 171.156 2224.88 169.207 2237.47 169.207C2255.16 169.207 2270.45 172.505 2283.34 179.1C2296.53 185.695 2307.32 194.539 2315.71 205.63C2324.41 216.722 2330.85 229.613 2335.05 244.302C2339.25 258.992 2341.34 274.43 2341.34 290.619C2341.34 308.306 2339.25 324.494 2335.05 339.183C2330.85 353.873 2324.41 366.613 2315.71 377.405C2307.32 387.898 2296.53 396.142 2283.34 402.137C2270.45 408.133 2255.16 411.131 2237.47 411.131C2218.28 411.131 2201.2 406.934 2186.21 398.54C2171.22 390.146 2160.28 376.506 2153.38 357.62H2152.48V488.474H2135.39V174.603H2152.48V227.664ZM2237.47 396.292C2252.46 396.292 2265.35 393.444 2276.14 387.748C2287.23 382.052 2296.23 374.408 2303.12 364.815C2310.32 355.222 2315.56 344.13 2318.86 331.539C2322.46 318.648 2324.26 305.008 2324.26 290.619C2324.26 277.428 2322.61 264.538 2319.31 251.947C2316.01 239.056 2310.92 227.664 2304.02 217.772C2297.13 207.579 2288.13 199.485 2277.04 193.489C2266.25 187.194 2253.06 184.046 2237.47 184.046C2222.18 184.046 2209.14 187.044 2198.35 193.04C2187.56 199.035 2178.71 206.98 2171.82 216.872C2165.22 226.765 2160.43 238.157 2157.43 251.047C2154.43 263.638 2152.93 276.829 2152.93 290.619C2152.93 304.409 2154.28 317.749 2156.98 330.639C2159.68 343.23 2164.17 354.472 2170.47 364.365C2177.06 373.958 2185.76 381.752 2196.55 387.748C2207.64 393.444 2221.28 396.292 2237.47 396.292Z" fill="white"/>
<path d="M1922.95 328.841C1923.55 339.633 1925.95 349.226 1930.14 357.62C1934.34 365.714 1939.74 372.759 1946.33 378.754C1953.23 384.45 1961.17 388.797 1970.16 391.795C1979.16 394.793 1988.9 396.292 1999.39 396.292C2006.89 396.292 2014.83 395.692 2023.23 394.493C2031.92 392.994 2039.86 390.446 2047.06 386.848C2054.55 383.251 2060.7 378.305 2065.5 372.009C2070.29 365.414 2072.69 357.17 2072.69 347.277C2072.69 334.387 2068.79 324.644 2061 318.049C2053.2 311.453 2043.31 306.357 2031.32 302.76C2019.63 299.162 2006.89 296.314 1993.1 294.216C1979.61 291.818 1966.87 288.37 1954.88 283.874C1943.18 279.377 1933.44 273.081 1925.65 264.987C1917.85 256.593 1913.96 244.452 1913.96 228.564C1913.96 217.172 1916.5 207.729 1921.6 200.234C1926.7 192.44 1933.14 186.295 1940.94 181.798C1949.03 177.301 1958.02 174.153 1967.92 172.355C1977.81 170.256 1987.7 169.207 1997.59 169.207C2009.59 169.207 2020.83 170.556 2031.32 173.254C2041.81 175.952 2050.81 180.299 2058.3 186.295C2066.09 192.29 2072.09 199.935 2076.29 209.228C2080.78 218.521 2083.03 229.763 2083.03 242.953H2065.94C2065.94 232.461 2064.15 223.468 2060.55 215.973C2057.25 208.478 2052.45 202.483 2046.16 197.986C2040.16 193.19 2032.97 189.742 2024.57 187.644C2016.18 185.245 2007.19 184.046 1997.59 184.046C1989.8 184.046 1981.86 184.796 1973.76 186.295C1965.97 187.793 1958.92 190.342 1952.63 193.939C1946.33 197.536 1941.09 202.183 1936.89 207.879C1932.99 213.575 1931.04 220.47 1931.04 228.564C1931.04 237.857 1933.29 245.352 1937.79 251.047C1942.28 256.743 1948.13 261.39 1955.33 264.987C1962.82 268.285 1971.06 270.983 1980.06 273.081C1989.35 275.18 1998.64 277.278 2007.94 279.377C2019.33 281.475 2029.97 284.023 2039.86 287.021C2050.06 289.719 2058.75 293.616 2065.94 298.713C2073.44 303.509 2079.29 309.805 2083.48 317.599C2087.68 325.393 2089.78 335.286 2089.78 347.277C2089.78 359.868 2086.93 370.211 2081.23 378.305C2075.54 386.399 2068.34 392.994 2059.65 398.09C2050.96 402.887 2041.21 406.184 2030.42 407.983C2019.93 410.082 2009.59 411.131 1999.39 411.131C1986.2 411.131 1973.91 409.332 1962.52 405.735C1951.43 402.437 1941.69 397.341 1933.29 390.446C1924.9 383.251 1918.3 374.557 1913.51 364.365C1908.71 354.172 1906.16 342.331 1905.86 328.841H1922.95Z" fill="white"/>
<defs>
<linearGradient id="paint0_linear_8215_812" x1="88.3151" y1="220.129" x2="553.055" y2="391.492" gradientUnits="userSpaceOnUse">
<stop offset="1e-05" stop-color="#80D435"/>
<stop offset="1" stop-color="#4AA4D0"/>
</linearGradient>
</defs>
</svg>